<?xml version="1.0" encoding="utf-8"?>
<!-- Generator: Adobe Illustrator 19.2.0, SVG Export Plug-In . SVG Version: 6.00 Build 0)  -->
<svg version="1.1" id="Capa_1" xmlns="http://www.w3.org/2000/svg" xmlns:xlink="http://www.w3.org/1999/xlink" x="0px" y="0px"
	 viewBox="0 0 220 52" style="enable-background:new 0 0 220 52;" xml:space="preserve">
<style type="text/css">
	.st0{fill:#FFFFFF;}
</style>
<path class="st0" d="M73.7,19c-0.7-0.7-1.6-1.3-2.6-1.7s-2.1-0.6-3.3-0.6c-1.4,0-2.7,0.2-3.9,0.7c-1.1,0.5-2.1,1.2-2.9,2
	c-0.8,0.9-1.4,1.9-1.8,3c-0.4,1.2-0.6,2.4-0.6,3.7c0,1.7,0.2,3.2,0.7,4.4s1.2,2.3,2,3.2c0.8,0.9,1.8,1.5,3,2
	c1.1,0.4,2.4,0.7,3.7,0.7c0.7,0,1.4,0,2.1-0.1c0.7-0.1,1.4-0.3,2.1-0.5c0.7-0.2,1.4-0.6,2-1c0.6-0.4,1.2-0.9,1.7-1.5l-1.3-1.7
	c-0.1-0.1-0.2-0.2-0.4-0.3c-0.1-0.1-0.3-0.1-0.5-0.1c-0.3,0-0.6,0.1-0.9,0.3c-0.3,0.2-0.7,0.4-1.1,0.6c-0.4,0.2-0.9,0.4-1.4,0.6
	c-0.5,0.2-1.2,0.3-1.9,0.3c-1.5,0-2.7-0.5-3.7-1.4c-0.9-0.9-1.4-2.4-1.6-4.3H75c0.2,0,0.4,0,0.5-0.1c0.1-0.1,0.2-0.1,0.3-0.3
	s0.1-0.3,0.2-0.5c0-0.2,0-0.5,0-0.9c0-1.4-0.2-2.6-0.6-3.7C75,20.7,74.4,19.8,73.7,19z M63.2,24.4c0.2-1.4,0.7-2.5,1.5-3.2
	c0.8-0.8,1.8-1.1,3.2-1.1c0.7,0,1.3,0.1,1.8,0.3c0.5,0.2,0.9,0.5,1.3,0.9c0.3,0.4,0.6,0.9,0.7,1.4c0.2,0.5,0.2,1.1,0.2,1.7H63.2z
	 M91.1,28.2c0.3,0.5,0.4,1.2,0.4,2c0,0.9-0.2,1.8-0.5,2.5c-0.3,0.8-0.8,1.5-1.5,2c-0.6,0.6-1.4,1-2.4,1.3c-1,0.3-2,0.5-3.3,0.5
	c-0.7,0-1.3-0.1-1.9-0.2s-1.2-0.3-1.8-0.5s-1.1-0.5-1.6-0.7c-0.5-0.3-0.9-0.6-1.3-0.9l1.1-1.8c0.1-0.2,0.3-0.4,0.5-0.5
	s0.4-0.2,0.7-0.2c0.3,0,0.6,0.1,0.8,0.2c0.3,0.2,0.6,0.3,0.9,0.5s0.7,0.4,1.2,0.5s1,0.2,1.7,0.2c0.5,0,1-0.1,1.4-0.2
	c0.4-0.1,0.7-0.3,1-0.5c0.3-0.2,0.4-0.5,0.6-0.7c0.1-0.3,0.2-0.6,0.2-0.9c0-0.4-0.1-0.8-0.4-1.1s-0.6-0.5-1.1-0.7
	c-0.4-0.2-0.9-0.4-1.5-0.6c-0.6-0.2-1.1-0.4-1.7-0.6c-0.6-0.2-1.2-0.4-1.7-0.7c-0.6-0.3-1.1-0.6-1.5-1c-0.4-0.4-0.8-0.9-1.1-1.5
	s-0.4-1.3-0.4-2.2c0-0.8,0.2-1.5,0.5-2.2c0.3-0.7,0.8-1.3,1.4-1.9c0.6-0.5,1.4-1,2.3-1.3c0.9-0.3,1.9-0.5,3.1-0.5
	c1.3,0,2.5,0.2,3.6,0.7s2,1,2.7,1.7l-1,1.7c-0.1,0.2-0.3,0.3-0.4,0.4c-0.1,0.1-0.3,0.1-0.5,0.1c-0.2,0-0.5-0.1-0.7-0.2
	c-0.3-0.1-0.6-0.3-0.9-0.4c-0.3-0.2-0.7-0.3-1.1-0.4c-0.4-0.1-0.9-0.2-1.5-0.2c-0.9,0-1.6,0.2-2.1,0.6c-0.5,0.4-0.8,0.9-0.8,1.5
	c0,0.4,0.1,0.8,0.4,1c0.3,0.3,0.6,0.5,1.1,0.7c0.4,0.2,0.9,0.4,1.5,0.6c0.6,0.2,1.1,0.4,1.7,0.6s1.2,0.4,1.7,0.7s1.1,0.6,1.5,1
	C90.4,27.2,90.8,27.6,91.1,28.2z M110.5,19.1c-0.6-0.8-1.4-1.5-2.2-1.9s-1.8-0.7-2.8-0.7c-0.7,0-1.3,0.1-1.9,0.2
	c-0.6,0.1-1.1,0.3-1.6,0.6c-0.5,0.2-1,0.5-1.4,0.9s-0.8,0.7-1.2,1.1L99,17.8c-0.1-0.3-0.3-0.6-0.5-0.7s-0.5-0.2-0.9-0.2H94v25.5h5.8
	v-7.4c0.6,0.5,1.2,0.9,1.9,1.2c0.7,0.3,1.5,0.4,2.5,0.4c1.2,0,2.4-0.3,3.4-0.8c1-0.5,1.9-1.2,2.6-2.1c0.7-0.9,1.3-2,1.7-3.2
	s0.6-2.6,0.6-4c0-1.6-0.2-2.9-0.5-4.2C111.6,21,111.1,19.9,110.5,19.1z M106.2,29.1c-0.2,0.7-0.4,1.4-0.8,1.8
	c-0.3,0.5-0.7,0.8-1.2,1c-0.4,0.2-0.9,0.3-1.5,0.3c-0.6,0-1.1-0.1-1.6-0.3c-0.5-0.2-1-0.5-1.4-1v-8.2c0.2-0.3,0.5-0.6,0.7-0.8
	c0.2-0.2,0.5-0.4,0.8-0.6c0.3-0.1,0.6-0.3,1-0.3s0.7-0.1,1.1-0.1c0.5,0,0.9,0.1,1.3,0.3c0.4,0.2,0.7,0.5,1,0.9
	c0.3,0.4,0.5,1,0.6,1.7c0.1,0.7,0.2,1.6,0.2,2.6C106.5,27.5,106.4,28.4,106.2,29.1z M126,16.9h5.8v19.4h-3.6c-0.7,0-1.2-0.3-1.4-1
	l-0.4-1.1c-0.4,0.4-0.8,0.7-1.2,1c-0.4,0.3-0.8,0.5-1.3,0.7c-0.5,0.2-0.9,0.4-1.5,0.5s-1.1,0.2-1.7,0.2c-1.1,0-2-0.2-2.8-0.6
	c-0.8-0.4-1.5-0.9-2.1-1.5c-0.6-0.7-1-1.4-1.3-2.3c-0.3-0.9-0.4-1.9-0.4-2.9V16.9h5.8v12.3c0,1,0.2,1.7,0.7,2.2s1.1,0.8,1.9,0.8
	c0.6,0,1.2-0.1,1.8-0.4c0.6-0.3,1.1-0.6,1.6-1.1V16.9z M151.8,19.1c-0.6-0.8-1.4-1.5-2.2-1.9c-0.9-0.4-1.8-0.7-2.8-0.7
	c-1.2,0-2.3,0.2-3.2,0.6c-0.9,0.4-1.7,1-2.5,1.7V8.3h-5.8v27.9h3.8c0.4,0,0.7-0.1,0.9-0.2s0.4-0.4,0.5-0.8l0.2-1
	c0.3,0.3,0.6,0.6,0.9,0.9c0.3,0.3,0.7,0.5,1,0.7c0.4,0.2,0.8,0.4,1.3,0.5c0.5,0.1,1,0.2,1.5,0.2c1.2,0,2.4-0.3,3.4-0.8
	c1-0.5,1.9-1.2,2.6-2.1c0.7-0.9,1.3-2,1.7-3.2s0.6-2.6,0.6-4c0-1.6-0.2-2.9-0.5-4.2C152.9,21,152.5,20,151.8,19.1z M147.6,29.1
	c-0.2,0.7-0.4,1.4-0.8,1.8c-0.3,0.5-0.7,0.8-1.2,1c-0.4,0.2-0.9,0.3-1.5,0.3c-0.6,0-1.1-0.1-1.6-0.3c-0.5-0.2-1-0.5-1.4-1v-8.2
	c0.2-0.3,0.5-0.6,0.7-0.8c0.2-0.2,0.5-0.4,0.8-0.6c0.3-0.1,0.6-0.3,1-0.3c0.3-0.1,0.7-0.1,1.1-0.1c0.5,0,0.9,0.1,1.3,0.3
	c0.4,0.2,0.7,0.5,1,0.9c0.3,0.4,0.5,1,0.6,1.7c0.1,0.7,0.2,1.6,0.2,2.6C147.9,27.5,147.8,28.4,147.6,29.1z M156.3,8.3h5.8v27.9h-5.8
	V8.3z M172.1,10.2c0.2,0.4,0.3,0.9,0.3,1.3c0,0.5-0.1,0.9-0.3,1.3c-0.2,0.4-0.4,0.8-0.8,1.1s-0.7,0.5-1.1,0.7
	c-0.4,0.2-0.9,0.3-1.4,0.3c-0.5,0-0.9-0.1-1.3-0.3c-0.4-0.2-0.8-0.4-1.1-0.7s-0.6-0.7-0.7-1.1c-0.2-0.4-0.3-0.8-0.3-1.3
	c0-0.5,0.1-0.9,0.3-1.3c0.2-0.4,0.4-0.8,0.7-1.1c0.3-0.3,0.7-0.6,1.1-0.7c0.4-0.2,0.9-0.3,1.3-0.3c0.5,0,0.9,0.1,1.4,0.3
	c0.4,0.2,0.8,0.4,1.1,0.7C171.7,9.5,172,9.8,172.1,10.2z M166,16.9h5.8v19.4H166V16.9z M189.4,31.1l1.7,2.1
	c-0.6,0.7-1.2,1.2-1.9,1.7c-0.7,0.4-1.3,0.8-2,1c-0.7,0.2-1.4,0.4-2.1,0.5c-0.7,0.1-1.4,0.1-2,0.1c-1.2,0-2.3-0.2-3.4-0.7
	c-1.1-0.4-2-1.1-2.8-2c-0.8-0.9-1.5-1.9-1.9-3.1c-0.5-1.2-0.7-2.7-0.7-4.3c0-1.4,0.2-2.7,0.6-3.9c0.4-1.2,1-2.3,1.8-3.2
	c0.8-0.9,1.8-1.6,3-2.1c1.2-0.5,2.6-0.8,4.2-0.8c1.5,0,2.8,0.2,4,0.7s2.2,1.2,3.1,2.1l-1.5,2c-0.2,0.2-0.3,0.4-0.5,0.5
	c-0.2,0.1-0.4,0.2-0.7,0.2c-0.3,0-0.5-0.1-0.8-0.2s-0.5-0.3-0.8-0.5s-0.6-0.3-1-0.5c-0.4-0.1-0.9-0.2-1.4-0.2
	c-0.7,0-1.3,0.1-1.8,0.4c-0.5,0.3-0.9,0.6-1.3,1.1s-0.6,1.1-0.7,1.8c-0.2,0.7-0.2,1.5-0.2,2.4c0,1.9,0.4,3.3,1.1,4.3
	c0.7,1,1.7,1.5,3,1.5c0.7,0,1.2-0.1,1.6-0.3c0.4-0.2,0.7-0.4,1-0.6s0.5-0.4,0.8-0.6s0.5-0.3,0.9-0.3
	C188.9,30.6,189.2,30.8,189.4,31.1z M208.4,19.2c-0.9-0.9-1.9-1.5-3.1-2c-1.2-0.5-2.5-0.7-4-0.7c-1.5,0-2.8,0.2-4,0.7
	c-1.2,0.5-2.3,1.1-3.1,2c-0.9,0.9-1.6,1.9-2,3.1c-0.5,1.2-0.7,2.6-0.7,4.1c0,1.5,0.2,2.9,0.7,4.2c0.5,1.2,1.2,2.3,2,3.2
	c0.9,0.9,1.9,1.5,3.1,2s2.6,0.7,4,0.7c1.5,0,2.8-0.2,4-0.7s2.2-1.1,3.1-2c0.9-0.9,1.5-1.9,2-3.2c0.5-1.2,0.7-2.6,0.7-4.2
	c0-1.5-0.2-2.9-0.7-4.1C210,21.1,209.3,20.1,208.4,19.2z M204.3,30.8c-0.6,0.9-1.6,1.4-2.9,1.4c-1.4,0-2.4-0.5-3-1.4
	c-0.6-0.9-1-2.4-1-4.3s0.3-3.3,1-4.3c0.6-0.9,1.6-1.4,3-1.4c1.3,0,2.3,0.5,2.9,1.4c0.6,0.9,0.9,2.4,0.9,4.3S204.9,29.9,204.3,30.8z
	 M218.2,33.7c0,0.4-0.1,0.8-0.2,1.1s-0.3,0.6-0.6,0.9s-0.5,0.4-0.9,0.6c-0.3,0.1-0.7,0.2-1.1,0.2c-0.4,0-0.8-0.1-1.1-0.2
	c-0.3-0.1-0.7-0.3-0.9-0.6s-0.5-0.5-0.6-0.9c-0.1-0.3-0.2-0.7-0.2-1.1c0-0.4,0.1-0.8,0.2-1.1c0.1-0.3,0.3-0.6,0.6-0.9
	s0.6-0.4,0.9-0.6s0.7-0.2,1.1-0.2c0.4,0,0.8,0.1,1.1,0.2c0.3,0.1,0.6,0.3,0.9,0.6s0.4,0.5,0.6,0.9S218.2,33.3,218.2,33.7z M22.8,8.9
	l18.1,8.7L8.7,23.3L22.8,8.9z M49.1,20.2c-0.4-1.7-1-3.3-1.7-4.8c-4.6-9.4-14.9-15-25.7-13.1C10.9,4.3,3,13.1,1.9,23.5
	c-0.2,1.7-0.2,3.4,0,5.1c0.1,0.5,0.1,1.1,0.2,1.6C3.4,37,7.3,42.6,12.7,46.1c0.7,0.5,1.5,0.9,2.3,1.3c3.8,1.9,8.2,2.9,12.7,2.5
	c0.8-0.1,1.6-0.2,2.4-0.3c0.8-0.1,1.6-0.3,2.3-0.5c4.3-1.2,8.1-3.6,11-6.7c0.6-0.6,1.2-1.3,1.7-2c3.8-5.1,5.6-11.7,4.4-18.5
	C49.3,21.3,49.2,20.8,49.1,20.2z M40.1,22.6l3.6,13.2c-1,1.8-2.2,3.4-3.6,4.8l-4.7-17.1L28,24.7l3.7,20.9c-0.8,0.2-1.5,0.4-2.3,0.6
	c-0.8,0.1-1.6,0.2-2.4,0.3l-3.7-20.9l-7.5,1.3l1.4,17.7c-1.8-0.8-3.5-1.9-5-3.3l-1.1-13.6l-5.6,1c-0.5-3.6,0-7,1.3-10.2l11-11.3
	c1.4-0.6,2.9-1,4.4-1.3c1.6-0.3,3.1-0.4,4.6-0.3l14.2,6.9c2.2,2.5,3.9,5.6,4.7,9.1L40.1,22.6z"/>
</svg>
